<svg width="820" height="180" viewBox="0 0 820 180" fill="none" xmlns="http://www.w3.org/2000/svg">
  <g>
    <rect x="8" y="16" width="144" height="144" rx="24" fill="#0F172A"/>
    <path d="M38 126V52L68 34L102 54V126H38Z" fill="#2563EB"/>
    <path d="M38 126V52L68 34V126H38Z" fill="#0B1A59"/>
    <path d="M76 66L92 76V126H76V66Z" fill="#0B1A59"/>
    <path d="M52 74C52 67.3726 57.3726 62 64 62C70.6274 62 76 67.3726 76 74C76 78.3125 73.7241 82.0935 70.3077 84.2091V94H57.6923V84.2091C54.2759 82.0935 52 78.3125 52 74Z" fill="#F8FAFC"/>
    <rect x="57.5" y="93.5" width="12.5" height="5.5" fill="#F8FAFC"/>
    <rect x="58" y="114" width="44" height="6" fill="#14B8A6"/>
  </g>
  <text x="182" y="78" fill="#0F172A" font-family="Inter, Segoe UI, Arial, sans-serif" font-size="56" font-weight="700">Property</text>
  <text x="182" y="142" fill="#0F172A" font-family="Inter, Segoe UI, Arial, sans-serif" font-size="56" font-weight="700">Management</text>
  <text x="572" y="142" fill="#2563EB" font-family="Inter, Segoe UI, Arial, sans-serif" font-size="56" font-weight="700">App</text>
</svg>
