<svg width="128" height="128" viewBox="0 0 128 128" fill="none" xmlns="http://www.w3.org/2000/svg">
  <rect width="128" height="128" rx="24" fill="#0F172A"/>
  <path d="M36 94V38L62 22L92 40V94H36Z" fill="#2563EB"/>
  <path d="M36 94V38L62 22V94H36Z" fill="#0B1A59"/>
  <path d="M69 52L84 61V94H69V52Z" fill="#0B1A59"/>
  <path d="M48 58C48 51.3726 53.3726 46 60 46C66.6274 46 72 51.3726 72 58C72 62.3125 69.7241 66.0935 66.3077 68.2091V78H53.6923V68.2091C50.2759 66.0935 48 62.3125 48 58Z" fill="#F8FAFC"/>
  <rect x="53.5" y="77.5" width="12.5" height="5.5" fill="#F8FAFC"/>
  <rect x="54" y="86" width="38" height="6" fill="#14B8A6"/>
</svg>
